<svg id="Icon" xmlns="http://www.w3.org/2000/svg" width="21.766" height="21.766" viewBox="0 0 21.766 21.766">
  <g id="Ikon">
    <path id="Path_195" data-name="Path 195" d="M23.766,12.883A10.883,10.883,0,1,1,2,12.883a.777.777,0,0,1,1.555,0A9.342,9.342,0,1,0,7.736,5.109h.483a.777.777,0,0,1,0,1.555H5.887a.777.777,0,0,1-.777-.777V3.555a.777.777,0,0,1,1.555,0v.4a10.88,10.88,0,0,1,17.1,8.929Zm-3.887,0a7,7,0,1,1-7-7,7,7,0,0,1,7,7Zm-4.233.908L13.66,12.467V9a.777.777,0,0,0-1.555,0v3.887a.778.778,0,0,0,.346.647l2.332,1.555a.777.777,0,1,0,.862-1.294Z" transform="translate(-2 -2)" fill="#6a7980"/>
  </g>
  <ellipse id="Ellipse_27" data-name="Ellipse 27" cx="5.5" cy="5" rx="5.5" ry="5" transform="translate(5.883 5.883)" fill="#6a7980"/>
  <path id="plus" d="M11.442,6a.907.907,0,0,0-.907.907v3.628H6.907a.907.907,0,0,0,0,1.814h3.628v3.628a.907.907,0,1,0,1.814,0V12.348h3.628a.907.907,0,1,0,0-1.814H12.348V6.907A.907.907,0,0,0,11.442,6Z" transform="translate(-0.559 -0.559)" fill="#fff"/>
</svg>
