<svg xmlns="http://www.w3.org/2000/svg" width="17.374" height="18.489" viewBox="0 0 17.374 18.489">
  <g id="CV" transform="translate(0.375 0.375)">
    <path id="_5" data-name="5" d="M8.48,17.739H2.107A2.107,2.107,0,0,1,0,15.632V2.107A2.107,2.107,0,0,1,2.107,0h9.757a2.107,2.107,0,0,1,2.107,2.107V7.165a.476.476,0,1,1-.948,0V2.107A1.142,1.142,0,0,0,11.876.965H2.107A1.142,1.142,0,0,0,.952,2.107V15.644a1.142,1.142,0,0,0,1.155,1.142H8.48a.476.476,0,0,1,0,.952Z" transform="translate(0)" fill="#fff" stroke="#fff" stroke-width="0.75"/>
    <path id="_4" data-name="4" d="M14.342,10.775H6.335a.476.476,0,1,1,0-.948h8.008a.476.476,0,0,1,0,.948Z" transform="translate(-3.364 -5.684)" fill="#fff" stroke="#fff" stroke-width="0.75"/>
    <path id="_3" data-name="3" d="M10.83,19.552h-4.4a.476.476,0,0,1,0-.952h4.4a.476.476,0,0,1,0,.952Z" transform="translate(-3.442 -10.761)" fill="#fff" stroke="#fff" stroke-width="0.75"/>
    <path id="_2" data-name="2" d="M23.768,36.1a.378.378,0,0,1-.378-.368A2.831,2.831,0,0,1,26.5,33.12h.026c1.467,0,3.043.828,3.043,2.6a.377.377,0,0,1-.752,0c0-1.262-1.192-1.845-2.3-1.851s-2.354.56-2.374,1.858A.374.374,0,0,1,23.768,36.1Z" transform="translate(-12.691 -19.334)" fill="#fff" stroke="#fff" stroke-width="0.25"/>
    <path id="_1" data-name="1" d="M29.188,23.843a1.772,1.772,0,1,1,1.765-1.772,1.772,1.772,0,0,1-1.765,1.772Zm0-2.944a1.172,1.172,0,1,0,1.166,1.172A1.172,1.172,0,0,0,29.188,20.9Z" transform="translate(-15.379 -10.76)" fill="#fff" stroke="#fff" stroke-width="0.25"/>
  </g>
</svg>
