<?xml version="1.0" encoding="utf-8"?>
<!-- Generator: Adobe Illustrator 27.9.0, SVG Export Plug-In . SVG Version: 6.00 Build 0)  -->
<svg version="1.1" id="Layer_1" xmlns="http://www.w3.org/2000/svg" xmlns:xlink="http://www.w3.org/1999/xlink" x="0px" y="0px"
	 viewBox="0 0 305.5 194" style="enable-background:new 0 0 305.5 194;" xml:space="preserve">
<style type="text/css">
	.st0{fill:#FFFFFF;}
</style>
<path class="st0" d="M738.72,315.49c0,35.33,0,70.67,0,106c-100,0-200,0-300,0c0-93.33,0-186.67,0-280c100,0,200,0,300,0
	c0,55.33,0,110.67,0,166c-3.36-4.86-8.06-6.27-13.81-6.06c-8.42,0.31-16.86,0.08-25.8,0.08c0-2.6,0-4.57,0-6.54
	c0-28.48,0.03-56.96-0.02-85.44c-0.01-6.83-1.13-8.01-7.17-8.01c-48.47-0.02-96.94-0.04-145.41,0.1c-2.17,0.01-5.63,1.16-6.19,2.64
	c-0.72,1.91,0.2,5.23,1.6,7.02c7.09,9.03,14.64,17.71,21.86,26.64c2.22,2.75,4.77,3.57,8.2,3.56c27.15-0.11,54.3-0.06,81.45-0.06
	c1.78,0,3.56,0,5.54,0c0,20.28,0,40.02,0,60.1c-9.5,0-18.65,0.03-27.79-0.01c-4.68-0.03-8.6,1.36-10.73,5.82
	c-2.13,4.47-0.7,8.4,2.32,11.95c0.54,0.63,1.03,1.31,1.57,1.95c15.14,18.16,30.26,36.34,45.42,54.49c6.47,7.75,12.45,7.75,18.91,0
	C705.38,355.65,722.04,335.57,738.72,315.49z M519.44,341.51c0-20.18,0-39.91,0-60.1c9.24,0,18.2-0.02,27.16,0.01
	c4.98,0.02,9.47-1.19,11.58-6.12c1.99-4.63,0.14-8.62-2.98-12.34c-15.63-18.62-31.12-37.36-46.74-55.99
	c-5.86-7-12.6-6.98-18.46-0.05c-6.56,7.76-13.02,15.59-19.52,23.4c-9.48,11.39-19.07,22.69-28.41,34.2
	c-5.61,6.91-2.15,15.39,6.65,16.73c2.28,0.35,4.65,0.16,6.98,0.16c7.74,0.01,15.48,0.01,23.62,0.01c0,3.57,0,6.38,0,9.19
	c0,27.48-0.02,54.96,0.01,82.44c0.01,7.04,1.12,8.35,6.82,8.35c48.47,0.02,96.94,0.05,145.4-0.11c2.33-0.01,5.8-1.21,6.64-2.89
	c0.83-1.66-0.39-5.15-1.81-6.97c-6.79-8.64-14.06-16.89-20.92-25.48c-2.65-3.32-5.65-4.54-9.86-4.52
	c-26.81,0.15-53.63,0.08-80.45,0.07C523.36,341.51,521.56,341.51,519.44,341.51z"/>
<path d="M299.72,121.49c-16.68,20.07-33.34,40.16-50.05,60.21c-6.46,7.76-12.44,7.75-18.91,0c-15.16-18.15-30.28-36.32-45.42-54.49
	c-0.53-0.64-1.03-1.31-1.57-1.95c-3.02-3.55-4.45-7.49-2.32-11.95c2.12-4.46,6.04-5.85,10.73-5.82c9.15,0.05,18.29,0.01,27.79,0.01
	c0-20.08,0-39.82,0-60.1c-1.97,0-3.75,0-5.54,0c-27.15,0-54.3-0.05-81.45,0.06c-3.43,0.01-5.98-0.81-8.2-3.56
	c-7.22-8.93-14.77-17.6-21.86-26.64c-1.4-1.78-2.32-5.11-1.6-7.02c0.56-1.48,4.02-2.63,6.19-2.64c48.47-0.15,96.94-0.12,145.41-0.1
	c6.04,0,7.16,1.18,7.17,8.01c0.05,28.48,0.02,56.96,0.02,85.44c0,1.97,0,3.93,0,6.54c8.94,0,17.38,0.23,25.8-0.08
	c5.76-0.21,10.45,1.2,13.81,6.06C299.72,116.16,299.72,118.83,299.72,121.49z"/>
<path d="M80.44,147.51c2.12,0,3.92,0,5.72,0c26.82,0,53.63,0.08,80.45-0.07c4.22-0.02,7.21,1.2,9.86,4.52
	c6.86,8.58,14.14,16.84,20.92,25.48c1.43,1.82,2.64,5.31,1.81,6.97c-0.84,1.69-4.32,2.89-6.64,2.89
	c-48.47,0.16-96.93,0.13-145.4,0.11c-5.7,0-6.81-1.32-6.82-8.35c-0.04-27.48-0.01-54.96-0.01-82.44c0-2.81,0-5.62,0-9.19
	c-8.13,0-15.88,0.01-23.62-0.01c-2.33,0-4.7,0.18-6.98-0.16c-8.81-1.34-12.26-9.82-6.65-16.73C12.41,59.01,22,47.71,31.48,36.32
	c6.5-7.8,12.96-15.64,19.52-23.4c5.86-6.93,12.6-6.95,18.46,0.05c15.61,18.64,31.11,37.37,46.74,55.99
	c3.12,3.72,4.97,7.71,2.98,12.34c-2.11,4.93-6.61,6.14-11.58,6.12c-8.96-0.03-17.92-0.01-27.16-0.01
	C80.44,107.6,80.44,127.34,80.44,147.51z"/>
</svg>
