<svg id="user" xmlns="http://www.w3.org/2000/svg" width="39.995" height="39.996" viewBox="0 0 39.995 39.996">
  <path id="Path_15" data-name="Path 15" d="M16.362,33.32l-5.967,3.255a5.362,5.362,0,0,0-.958.681,19.985,19.985,0,0,0,25.678.066,5.294,5.294,0,0,0-1.052-.7l-6.39-3.194a2.437,2.437,0,0,1-1.347-2.179V28.737a9.65,9.65,0,0,0,.6-.777,14.7,14.7,0,0,0,1.986-4,2.007,2.007,0,0,0,1.423-1.909V19.372a2,2,0,0,0-.669-1.483V14.021S30.467,8,22.314,8s-7.358,6.02-7.358,6.02v3.868a2,2,0,0,0-.669,1.483v2.676a2.006,2.006,0,0,0,.925,1.684,13.279,13.279,0,0,0,2.419,5.006v2.445A2.439,2.439,0,0,1,16.362,33.32Z" transform="translate(-2.315 -1.963)" fill="#e7eced"/>
  <g id="Group_12" data-name="Group 12">
    <path id="Path_16" data-name="Path 16" d="M20.34,0A19.986,19.986,0,0,0,7.13,35.287a5.314,5.314,0,0,1,.949-.675l5.967-3.255a2.438,2.438,0,0,0,1.27-2.139V26.773A13.267,13.267,0,0,1,12.9,21.768a2.007,2.007,0,0,1-.925-1.684V17.408a2,2,0,0,1,.669-1.483V12.057S11.845,6.037,20,6.037s7.358,6.02,7.358,6.02v3.868a2,2,0,0,1,.669,1.483v2.676A2.007,2.007,0,0,1,26.6,21.994a14.7,14.7,0,0,1-1.986,4,9.65,9.65,0,0,1-.6.777V29.28a2.436,2.436,0,0,0,1.347,2.179l6.39,3.194a5.321,5.321,0,0,1,1.049.7A19.994,19.994,0,0,0,20.34,0Z" transform="translate(0 0)" fill="#556080"/>
  </g>
</svg>
