<svg id="user" xmlns="http://www.w3.org/2000/svg" viewBox="0 0 39.99 40"><defs><style>.cls-1{fill:#556080;}.cls-2{fill:#e7eced;}</style></defs><path class="cls-1" d="M40,20A20,20,0,1,1,20,0,19.91,19.91,0,0,1,40,20Z"/><path class="cls-2" d="M34.26,34A20,20,0,0,1,5.74,34a7.49,7.49,0,0,1,3.82-2.44l5.17-1.36L15,29a16.12,16.12,0,0,1-5.48-1.8.7.7,0,0,1-.32-.57.71.71,0,0,1,.27-.6s2.42-2.1,2.42-9.34C11.91,8.71,17.47,6,20,6a4.22,4.22,0,0,1,3.65,1.41H24c2.69,0,4.05,3.1,4.05,9.2,0,7.24,2.41,9.32,2.43,9.34a.78.78,0,0,1,.26.61.73.73,0,0,1-.33.56A16.5,16.5,0,0,1,25,29l.3,1.25,5.17,1.36A7.49,7.49,0,0,1,34.26,34Z"/></svg>